<svg width="132" height="209" viewBox="0 0 132 209" fill="none" xmlns="http://www.w3.org/2000/svg">
<path d="M116.422 192.977C113.647 195.009 98.6637 208.27 98.7548 208.613C98.8485 208.966 110.157 205.275 113.669 203.745C118.654 201.572 124.82 197.446 127.076 194.772C128.01 193.664 129.395 191.421 130.152 189.788L131.529 186.818L129.614 186.933C126.98 187.09 120.253 190.172 116.422 192.977Z" fill="#FBF4E6"/>
<path d="M71.083 201.931C72.6052 201.957 76.7319 202.092 80.2537 202.231C91.3463 202.67 102.149 198.787 105.933 193L107.378 190.791L105.666 190.488C99.2608 189.356 90.3198 191.192 82.0148 195.345C79.0368 196.834 74.7361 198.915 72.4578 199.968L68.3154 201.884L71.083 201.931Z" fill="#FBF4E6"/>
<path d="M101.136 176.103C103.854 180.585 114.031 187.509 118.059 187.616C119.162 187.646 121.87 187.213 124.077 186.653L128.089 185.637L126.577 183.643C123.006 178.937 118.814 177.042 110.641 176.44C108.183 176.259 104.863 175.818 103.262 175.461L100.352 174.811L101.136 176.103Z" fill="#FBF4E6"/>
<path d="M83.4816 176.549C88.028 183.86 93.9645 187.934 100.978 188.557C103.809 188.808 104.239 188.244 103.218 185.622C101.462 181.112 99.1192 179.071 88.6748 172.953L78.5535 167.024L79.6192 169.538C80.2054 170.92 81.9435 174.075 83.4816 176.549Z" fill="#FBF4E6"/>
<path d="M49.5451 188.149C57.2959 191.018 59.2982 191.443 66.6822 191.783C71.0972 191.986 77.1783 190.17 80.2997 187.716L82.178 186.239L79.3155 184.782C77.7411 183.981 74.4927 182.926 72.097 182.437C69.7014 181.949 67.2644 181.445 66.6816 181.318C64.5561 180.854 42.6037 184.185 41.8864 185.081C41.8072 185.18 45.2536 186.561 49.5451 188.149Z" fill="#FBF4E6"/>
<path d="M64.8426 171.911C66.6268 175.42 71.2743 179.414 75.7553 181.29L78.7792 182.555L78.7165 180.181C78.5839 175.152 74.0287 167.378 68.2357 162.294C67.0429 161.247 64.584 158.744 62.7712 156.731L59.4752 153.07L61.3976 160.993C62.4744 165.431 63.9896 170.233 64.8426 171.911Z" fill="#FBF4E6"/>
<path d="M44.1341 175.313C45.382 175.599 48.1331 175.766 50.2475 175.683C52.3618 175.601 54.5928 175.274 55.2046 174.957C55.8165 174.639 56.7885 174.25 57.3645 174.09C58.3276 173.824 58.3039 173.68 57.0693 172.298C54.9935 169.975 49.245 166.121 45.8567 164.781C41.3982 163.017 33.9594 161.693 29.9376 161.947C28.0121 162.069 25.3287 162.045 23.9745 161.894C20.5089 161.508 20.4186 161.643 23.0156 163.326C24.2818 164.147 26.9248 166.109 28.889 167.686C32.5365 170.615 40.0611 174.379 44.1341 175.313Z" fill="#FBF4E6"/>
<path d="M48.285 160.594C49.9479 163.843 51.1377 165.35 53.1619 166.774C54.6345 167.81 56.0361 168.444 56.2763 168.183C57.1208 167.267 56.838 160.96 55.776 157.027C55.1035 154.536 53.0851 150.09 50.3721 145.124C47.9903 140.764 45.7991 136.386 45.5025 135.395C44.9707 133.616 44.9572 133.63 44.5046 136.431C43.9668 139.758 44.5566 150.59 45.4589 153.958C45.8036 155.244 47.0753 158.23 48.285 160.594Z" fill="#FBF4E6"/>
<path d="M19.662 148.69C23.2391 151.917 28.3981 154.195 33.0486 154.602C38.1743 155.049 38.3514 154.949 37.1591 152.254C34.7986 146.92 27.8642 140.461 22.8714 138.946C21.5413 138.543 18.6019 137.523 16.3393 136.679C14.0768 135.836 10.7744 134.743 9.001 134.251L5.77656 133.357L11.2524 139.701C14.2642 143.189 18.0485 147.235 19.662 148.69Z" fill="#FBF4E6"/>
<path d="M31.0666 130.963C30.8935 136.545 32.3889 142.048 35.1467 145.978C37.2617 148.991 37.3097 149.017 38.1884 147.621C39.2748 145.895 40.1246 141.917 40.2771 137.845C40.3666 135.459 37.7605 121.008 35.965 113.935C35.4188 111.783 31.2074 126.423 31.0666 130.963Z" fill="#FBF4E6"/>
<path d="M3.40829 111.558C8.03532 121.871 12.7382 127.216 19.1202 129.414C21.2215 130.138 23.3028 130.633 23.7452 130.515C24.9446 130.193 23.0638 123.833 20.6043 119.893C18.4286 116.408 9.49794 108.438 6.53741 107.34C5.59165 106.99 3.63913 106.142 2.19836 105.457C0.188484 104.502 -0.250906 104.453 0.310534 105.249C0.713042 105.819 2.10701 108.658 3.40829 111.558Z" fill="#FBF4E6"/>
<path d="M22.6641 115.162C22.7184 117.971 23.1487 120.299 24.0071 122.429C24.7018 124.152 25.465 125.51 25.703 125.447C26.2351 125.304 29.6688 116.475 30.51 113.085C31.0576 110.879 31.4512 105.152 31.7659 94.8167C31.8227 92.9494 31.832 91.2827 31.7865 91.1128C31.741 90.943 29.9359 93.7973 27.7754 97.4558C23.535 104.636 22.5282 108.124 22.6641 115.162Z" fill="#FBF4E6"/>
<path d="M3.25248 85.1017C5.41188 96.1316 9.04598 102.157 14.5535 103.84C17.4235 104.717 17.529 104.644 17.5153 101.773C17.4926 97.023 16.7656 93.5691 15.1484 90.5288C13.3085 87.0696 9.44218 81.9753 7.85684 80.9213C7.26984 80.5312 5.46789 78.9096 3.85253 77.3181C0.997285 74.5049 0.929456 74.4779 1.41547 76.3484C1.69045 77.4068 2.51708 81.3456 3.25248 85.1017Z" fill="#FBF4E6"/>
<path d="M23.0437 80.8345C19.1983 86.7657 17.7662 93.1649 19.1381 98.2851C19.6588 100.228 19.7905 100.183 22.2254 97.2277C25.2825 93.517 27.9764 88.1098 30.282 81.057C31.433 77.5357 32.9396 73.4079 33.6301 71.8842C34.3206 70.3604 34.7428 69.152 34.5684 69.1987C33.4051 69.5105 24.6627 78.3372 23.0437 80.8345Z" fill="#FBF4E6"/>
<path d="M8.69423 52.8197C7.83868 67.7284 8.84804 72.0879 14.4567 77.7086L16.2305 79.4862L17.1274 77.5643C18.751 74.085 18.9296 68.3552 17.5732 63.2627C16.5993 59.6059 15.5606 57.4183 12.6748 52.9467L9.01252 47.2718L8.69423 52.8197Z" fill="#FBF4E6"/>
<path d="M36.2181 52.8689C26.8672 57.9625 20.1394 66.5024 19.866 73.6249C19.8215 74.7865 20.0377 75.038 20.8821 74.8067C23.6345 74.053 31.6928 65.5021 35.3703 59.4325C36.2291 58.0152 38.0497 55.3937 39.4164 53.6069C42.1874 49.9839 41.7144 49.8749 36.2181 52.8689Z" fill="#FBF4E6"/>
<path d="M17.8275 40.3569C17.0687 44.2822 17.9052 49.5035 19.931 53.4864C20.6101 54.8216 21.4336 55.8423 21.7608 55.7547C22.0879 55.667 23.3801 53.7873 24.6323 51.5776C28.1303 45.4043 28.2734 37.6389 25.0441 29.2121L23.5719 25.3701L21.0408 31.0997C19.6484 34.2508 18.2026 38.4166 17.8275 40.3569Z" fill="#FBF4E6"/>
<path d="M45.6791 37.0233C36.4799 39.4707 31.8871 42.5577 28.1486 48.8066L25.8051 52.7236L28.968 51.8648C33.8625 50.5358 38.9746 47.6211 43.4523 43.6063C45.7 41.5912 48.6858 39.1102 50.0875 38.093C53.5034 35.6144 52.1814 35.2936 45.6791 37.0233Z" fill="#FBF4E6"/>
<path d="M38.9022 34.078C39.1639 34.2333 40.4316 34.2911 41.7195 34.2064C45.4901 33.9584 49.5817 32.7613 56.2659 29.9505C59.7107 28.5019 63.5259 27.0472 64.7443 26.7178C65.9627 26.3883 66.9016 25.9025 66.8308 25.6381C66.76 25.3737 64.1613 24.9848 61.0559 24.7738C53.6 24.2674 46.2186 26.1024 42.0677 29.4941C39.3029 31.7533 38.0478 33.5708 38.9022 34.078Z" fill="#FBF4E6"/>
<path d="M38.256 14.5298C32.1593 21.7178 30.0392 29.3078 32.7488 34.2436C33.1939 35.0544 33.6728 35.6869 33.813 35.6493C34.9817 35.3362 38.4146 31.2331 40.1636 28.0588C42.6342 23.5754 43.4388 19.9135 43.3391 13.6086L43.2682 9.12802L42.1839 10.1525C41.5876 10.7159 39.82 12.6857 38.256 14.5298Z" fill="#FBF4E6"/>
<path d="M59.4837 4.12576C50.8543 9.06747 48.4496 12.2979 48.7883 18.4933C48.896 20.4635 48.9912 20.5483 50.6146 20.1133C55.0105 18.9354 57.9974 16.2277 61.2064 10.5106C64.547 4.55932 66.1416 -0.255191 64.2996 1.17173C63.7655 1.58546 61.5984 2.91479 59.4837 4.12576Z" fill="#FBF4E6"/>
</svg>
