<svg width="132" height="209" viewBox="0 0 132 209" fill="none" xmlns="http://www.w3.org/2000/svg">
<path d="M15.1965 192.977C17.9719 195.009 32.9552 208.27 32.8641 208.613C32.7704 208.966 21.4617 205.275 17.9501 203.745C12.9653 201.572 6.79915 197.446 4.54339 194.772C3.60864 193.664 2.22407 191.421 1.46669 189.788L0.0896152 186.818L2.00459 186.933C4.63935 187.09 11.3659 190.172 15.1965 192.977Z" fill="#FBF4E6"/>
<path d="M60.536 201.931C59.0138 201.957 54.887 202.092 51.3652 202.231C40.2726 202.67 29.4704 198.787 25.6855 193L24.2406 190.791L25.9529 190.488C32.3581 189.356 41.2991 191.192 49.6041 195.345C52.5822 196.834 56.8829 198.915 59.1611 199.968L63.3035 201.884L60.536 201.931Z" fill="#FBF4E6"/>
<path d="M30.4831 176.103C27.765 180.585 17.5882 187.509 13.56 187.616C12.457 187.646 9.7492 187.213 7.54235 186.653L3.52978 185.637L5.04239 183.643C8.61279 178.937 12.8052 177.042 20.9782 176.44C23.4356 176.259 26.7559 175.818 28.3566 175.461L31.267 174.811L30.4831 176.103Z" fill="#FBF4E6"/>
<path d="M48.1374 176.549C43.591 183.86 37.6544 187.934 30.6407 188.557C27.8101 188.808 27.3797 188.244 28.401 185.622C30.1572 181.112 32.4998 179.071 42.9441 172.953L53.0655 167.024L51.9997 169.538C51.4136 170.92 49.6755 174.075 48.1374 176.549Z" fill="#FBF4E6"/>
<path d="M82.0739 188.149C74.3231 191.018 72.3207 191.443 64.9368 191.783C60.5218 191.986 54.4407 190.17 51.3192 187.716L49.4409 186.239L52.3035 184.782C53.8778 183.981 57.1262 182.926 59.522 182.437C61.9175 181.949 64.3545 181.445 64.9374 181.318C67.0628 180.854 89.0152 184.185 89.7325 185.081C89.8117 185.18 86.3653 186.561 82.0739 188.149Z" fill="#FBF4E6"/>
<path d="M66.7764 171.911C64.9922 175.42 60.3447 179.414 55.8636 181.29L52.8398 182.555L52.9025 180.181C53.035 175.152 57.5902 167.378 63.3832 162.294C64.576 161.247 67.035 158.744 68.8478 156.731L72.1438 153.07L70.2214 160.993C69.1446 165.431 67.6293 170.233 66.7764 171.911Z" fill="#FBF4E6"/>
<path d="M87.4849 175.313C86.2369 175.599 83.4859 175.766 81.3715 175.683C79.2571 175.601 77.0262 175.274 76.4143 174.957C75.8024 174.639 74.8305 174.25 74.2544 174.09C73.2913 173.824 73.3151 173.68 74.5496 172.298C76.6255 169.975 82.374 166.121 85.7622 164.781C90.2208 163.017 97.6596 161.693 101.681 161.947C103.607 162.069 106.29 162.045 107.644 161.894C111.11 161.508 111.2 161.643 108.603 163.326C107.337 164.147 104.694 166.109 102.73 167.686C99.0825 170.615 91.5579 174.379 87.4849 175.313Z" fill="#FBF4E6"/>
<path d="M83.3339 160.594C81.671 163.843 80.4813 165.35 78.457 166.774C76.9844 167.81 75.5829 168.444 75.3426 168.183C74.4981 167.267 74.7809 160.96 75.8429 157.027C76.5154 154.536 78.5339 150.09 81.2468 145.124C83.6286 140.764 85.8199 136.386 86.1164 135.395C86.6483 133.616 86.6618 133.63 87.1144 136.431C87.6521 139.758 87.0624 150.59 86.16 153.958C85.8154 155.244 84.5437 158.23 83.3339 160.594Z" fill="#FBF4E6"/>
<path d="M111.957 148.69C108.38 151.917 103.221 154.195 98.5704 154.602C93.4447 155.049 93.2675 154.949 94.4598 152.254C96.8204 146.92 103.755 140.461 108.748 138.946C110.078 138.543 113.017 137.523 115.28 136.679C117.542 135.836 120.845 134.743 122.618 134.251L125.842 133.357L120.367 139.701C117.355 143.189 113.57 147.235 111.957 148.69Z" fill="#FBF4E6"/>
<path d="M100.552 130.963C100.725 136.545 99.2301 142.048 96.4722 145.978C94.3572 148.991 94.3093 149.017 93.4305 147.621C92.3442 145.895 91.4943 141.917 91.3418 137.845C91.2524 135.459 93.8585 121.008 95.6539 113.935C96.2001 111.783 100.412 126.423 100.552 130.963Z" fill="#FBF4E6"/>
<path d="M128.211 111.558C123.584 121.871 118.881 127.216 112.499 129.414C110.397 130.138 108.316 130.633 107.874 130.515C106.674 130.193 108.555 123.833 111.015 119.893C113.19 116.408 122.121 108.438 125.082 107.34C126.027 106.99 127.98 106.142 129.421 105.457C131.43 104.502 131.87 104.453 131.308 105.249C130.906 105.819 129.512 108.658 128.211 111.558Z" fill="#FBF4E6"/>
<path d="M108.955 115.162C108.901 117.971 108.47 120.299 107.612 122.429C106.917 124.152 106.154 125.51 105.916 125.447C105.384 125.304 101.95 116.475 101.109 113.085C100.561 110.879 100.168 105.152 99.8531 94.8167C99.7962 92.9494 99.787 91.2827 99.8325 91.1128C99.878 90.943 101.683 93.7973 103.844 97.4558C108.084 104.636 109.091 108.124 108.955 115.162Z" fill="#FBF4E6"/>
<path d="M128.366 85.1017C126.207 96.1316 122.573 102.157 117.065 103.84C114.195 104.717 114.09 104.644 114.104 101.773C114.126 97.023 114.853 93.5691 116.471 90.5288C118.31 87.0696 122.177 81.9753 123.762 80.9213C124.349 80.5312 126.151 78.9096 127.766 77.3181C130.622 74.5049 130.69 74.4779 130.203 76.3484C129.929 77.4068 129.102 81.3456 128.366 85.1017Z" fill="#FBF4E6"/>
<path d="M108.575 80.8345C112.421 86.7657 113.853 93.1649 112.481 98.2851C111.96 100.228 111.828 100.183 109.394 97.2277C106.337 93.517 103.643 88.1098 101.337 81.057C100.186 77.5357 98.6793 73.4079 97.9888 71.8842C97.2983 70.3604 96.8761 69.152 97.0505 69.1987C98.2139 69.5105 106.956 78.3372 108.575 80.8345Z" fill="#FBF4E6"/>
<path d="M122.925 52.8197C123.78 67.7284 122.771 72.0879 117.162 77.7086L115.388 79.4862L114.492 77.5643C112.868 74.085 112.689 68.3552 114.046 63.2627C115.02 59.6059 116.058 57.4183 118.944 52.9467L122.606 47.2718L122.925 52.8197Z" fill="#FBF4E6"/>
<path d="M95.4008 52.8689C104.752 57.9625 111.48 66.5024 111.753 73.6249C111.797 74.7865 111.581 75.038 110.737 74.8067C107.984 74.053 99.9262 65.5021 96.2486 59.4325C95.3899 58.0152 93.5692 55.3937 92.2026 53.6069C89.4315 49.9839 89.9045 49.8749 95.4008 52.8689Z" fill="#FBF4E6"/>
<path d="M113.791 40.3569C114.55 44.2822 113.714 49.5035 111.688 53.4864C111.009 54.8216 110.185 55.8423 109.858 55.7547C109.531 55.667 108.239 53.7873 106.987 51.5776C103.489 45.4043 103.346 37.6389 106.575 29.2121L108.047 25.3701L110.578 31.0997C111.971 34.2508 113.416 38.4166 113.791 40.3569Z" fill="#FBF4E6"/>
<path d="M85.9398 37.0233C95.1391 39.4707 99.7319 42.5577 103.47 48.8066L105.814 52.7236L102.651 51.8648C97.7564 50.5358 92.6444 47.6211 88.1666 43.6063C85.919 41.5912 82.9332 39.1102 81.5314 38.093C78.1156 35.6144 79.4375 35.2936 85.9398 37.0233Z" fill="#FBF4E6"/>
<path d="M92.7167 34.078C92.4551 34.2333 91.1873 34.2911 89.8995 34.2064C86.1289 33.9584 82.0372 32.7613 75.3531 29.9505C71.9083 28.5019 68.093 27.0472 66.8746 26.7178C65.6562 26.3883 64.7173 25.9025 64.7882 25.6381C64.859 25.3737 67.4576 24.9848 70.563 24.7738C78.019 24.2674 85.4004 26.1024 89.5513 29.4941C92.316 31.7533 93.5712 33.5708 92.7167 34.078Z" fill="#FBF4E6"/>
<path d="M93.363 14.5298C99.4596 21.7178 101.58 29.3078 98.8701 34.2436C98.425 35.0544 97.9462 35.6869 97.8059 35.6493C96.6373 35.3362 93.2043 31.2331 91.4553 28.0588C88.9847 23.5754 88.1801 19.9135 88.2799 13.6086L88.3507 9.12802L89.4351 10.1525C90.0314 10.7159 91.7989 12.6857 93.363 14.5298Z" fill="#FBF4E6"/>
<path d="M72.1352 4.12576C80.7647 9.06747 83.1694 12.2979 82.8307 18.4933C82.723 20.4635 82.6278 20.5483 81.0044 20.1133C76.6085 18.9354 73.6216 16.2277 70.4126 10.5106C67.072 4.55932 65.4773 -0.255191 67.3194 1.17173C67.8534 1.58546 70.0206 2.91479 72.1352 4.12576Z" fill="#FBF4E6"/>
</svg>
